<svg xmlns="http://www.w3.org/2000/svg" width="900" height="500">
<rect width="100%" height="100%" fill="#ffffff"/>
<text x="450.0" y="30.0" text-anchor="middle" font-family="Arial" font-size="18">Benford's Law Analysis</text>
<rect x="70.40" y="440.00" width="52.00" height="0.00" fill="#4C78A8" opacity="0.85"/>
<text x="96.40" y="470.00" text-anchor="middle" font-family="Arial" font-size="12">1</text>
<rect x="157.07" y="60.00" width="52.00" height="380.00" fill="#4C78A8" opacity="0.85"/>
<text x="183.07" y="470.00" text-anchor="middle" font-family="Arial" font-size="12">2</text>
<rect x="243.73" y="440.00" width="52.00" height="0.00" fill="#4C78A8" opacity="0.85"/>
<text x="269.73" y="470.00" text-anchor="middle" font-family="Arial" font-size="12">3</text>
<rect x="330.40" y="440.00" width="52.00" height="0.00" fill="#4C78A8" opacity="0.85"/>
<text x="356.40" y="470.00" text-anchor="middle" font-family="Arial" font-size="12">4</text>
<rect x="417.07" y="440.00" width="52.00" height="0.00" fill="#4C78A8" opacity="0.85"/>
<text x="443.07" y="470.00" text-anchor="middle" font-family="Arial" font-size="12">5</text>
<rect x="503.73" y="440.00" width="52.00" height="0.00" fill="#4C78A8" opacity="0.85"/>
<text x="529.73" y="470.00" text-anchor="middle" font-family="Arial" font-size="12">6</text>
<rect x="590.40" y="440.00" width="52.00" height="0.00" fill="#4C78A8" opacity="0.85"/>
<text x="616.40" y="470.00" text-anchor="middle" font-family="Arial" font-size="12">7</text>
<rect x="677.07" y="440.00" width="52.00" height="0.00" fill="#4C78A8" opacity="0.85"/>
<text x="703.07" y="470.00" text-anchor="middle" font-family="Arial" font-size="12">8</text>
<rect x="763.73" y="440.00" width="52.00" height="0.00" fill="#4C78A8" opacity="0.85"/>
<text x="789.73" y="470.00" text-anchor="middle" font-family="Arial" font-size="12">9</text>
<polyline points="60.00,325.61 157.50,373.09 255.00,392.52 352.50,403.17 450.00,409.91 547.50,414.56 645.00,417.96 742.50,420.56 840.00,422.61" fill="none" stroke="#F58518" stroke-width="2"/>
<circle cx="60.00" cy="325.61" r="4" fill="#F58518"/>
<circle cx="157.50" cy="373.09" r="4" fill="#F58518"/>
<circle cx="255.00" cy="392.52" r="4" fill="#F58518"/>
<circle cx="352.50" cy="403.17" r="4" fill="#F58518"/>
<circle cx="450.00" cy="409.91" r="4" fill="#F58518"/>
<circle cx="547.50" cy="414.56" r="4" fill="#F58518"/>
<circle cx="645.00" cy="417.96" r="4" fill="#F58518"/>
<circle cx="742.50" cy="420.56" r="4" fill="#F58518"/>
<circle cx="840.00" cy="422.61" r="4" fill="#F58518"/>
<line x1="60" y1="440.00" x2="840" y2="440.00" stroke="#E0E0E0" stroke-width="1"/>
<text x="50" y="444.00" text-anchor="end" font-family="Arial" font-size="12">0.00</text>
<line x1="60" y1="364.00" x2="840" y2="364.00" stroke="#E0E0E0" stroke-width="1"/>
<text x="50" y="368.00" text-anchor="end" font-family="Arial" font-size="12">0.20</text>
<line x1="60" y1="288.00" x2="840" y2="288.00" stroke="#E0E0E0" stroke-width="1"/>
<text x="50" y="292.00" text-anchor="end" font-family="Arial" font-size="12">0.40</text>
<line x1="60" y1="212.00" x2="840" y2="212.00" stroke="#E0E0E0" stroke-width="1"/>
<text x="50" y="216.00" text-anchor="end" font-family="Arial" font-size="12">0.60</text>
<line x1="60" y1="136.00" x2="840" y2="136.00" stroke="#E0E0E0" stroke-width="1"/>
<text x="50" y="140.00" text-anchor="end" font-family="Arial" font-size="12">0.80</text>
<line x1="60" y1="60.00" x2="840" y2="60.00" stroke="#E0E0E0" stroke-width="1"/>
<text x="50" y="64.00" text-anchor="end" font-family="Arial" font-size="12">1.00</text>
<text x="450.0" y="490" text-anchor="middle" font-family="Arial" font-size="14">Leading Digit</text>
<text x="20" y="250.0" text-anchor="middle" font-family="Arial" font-size="14" transform="rotate(-90 20,{height / 2})">Proportion</text>
</svg>